PathFileType	4	(X/Y/Z)	s09c0201.trc
DataRate	CameraRate	NumFrames	NumMarkers	Units	OrigDataRate	OrigDataStartFrame	OrigNumFrames
200	200	5	50	mm	200	1250	2000
Frame#	Time	racr			lacr			c7			jug			rlel			rdr			llel			ldr			s2			lic			ric			lasi			rasi			rpsi			lpsi			rgt			lgt			rth1			rth2			rth3			rth4			rlfc			rmfc			rsh1			rsh2			rsh3			rsh4			rlmal			rmmal			rcal			rtoe			rmt5			lth1			lth2			lth4			lth3			llfc			lmfc			llmal			lmmal			lcal			lmt5			lsh1			lsh2			lsh3			lsh4			ltoe			SBIKE			LBIKE			RBIKE			
		X1	Y1	Z1	X2	Y2	Z2	X3	Y3	Z3	X4	Y4	Z4	X5	Y5	Z5	X6	Y6	Z6	X7	Y7	Z7	X8	Y8	Z8	X9	Y9	Z9	X10	Y10	Z10	X11	Y11	Z11	X12	Y12	Z12	X13	Y13	Z13	X14	Y14	Z14	X15	Y15	Z15	X16	Y16	Z16	X17	Y17	Z17	X18	Y18	Z18	X19	Y19	Z19	X20	Y20	Z20	X21	Y21	Z21	X22	Y22	Z22	X23	Y23	Z23	X24	Y24	Z24	X25	Y25	Z25	X26	Y26	Z26	X27	Y27	Z27	X28	Y28	Z28	X29	Y29	Z29	X30	Y30	Z30	X31	Y31	Z31	X32	Y32	Z32	X33	Y33	Z33	X34	Y34	Z34	X35	Y35	Z35	X36	Y36	Z36	X37	Y37	Z37	X38	Y38	Z38	X39	Y39	Z39	X40	Y40	Z40	X41	Y41	Z41	X42	Y42	Z42	X43	Y43	Z43	X44	Y44	Z44	X45	Y45	Z45	X46	Y46	Z46	X47	Y47	Z47	X48	Y48	Z48	X49	Y49	Z49	X50	Y50	Z50	
1250	6.2500	511.505969	1207.612085	-71.658722	507.807624	1216.092657	-422.810329	497.762752	1295.484968	-238.850625	465.906269	1165.690338	-247.372591	489.243910	1015.710030	87.455568	676.718749	902.087381	-5.735566	455.625644	1004.015882	-594.077150	656.610331	903.480953	-492.683180	6.663358	1123.243320	-223.480674	123.665009	1144.008012	-383.773282	155.487993	1118.797543	-81.931126	170.089762	1086.680018	-364.645226	198.530474	1071.691554	-112.695144	38.139770	1154.061590	-161.502412	29.443371	1167.026360	-268.141635	151.370941	977.845532	-51.901561	105.568227	1004.378196	-421.988834	260.258569	892.511974	-75.908025	336.362642	853.190048	-95.538264	378.535200	776.222977	-109.154346	354.225910	873.952535	-121.358665	415.272746	685.404747	-145.131294	379.569638	669.790203	-237.224116	338.220532	623.140800	-103.469256	291.537179	547.562404	-111.416243	215.114056	505.149697	-100.569844	305.500167	532.437716	-145.853020	140.818062	441.062235	-89.408709	140.660825	444.601262	-165.338759	63.539247	475.538074	-120.705785	209.436312	255.441351	-129.474150	151.072680	312.806335	-62.704097	222.123877	917.021948	-428.724832	302.300572	888.024121	-423.156180	323.718717	916.897410	-410.514285	360.002724	819.336536	-422.179153	424.288678	740.349060	-405.811223	444.946431	728.765251	-308.917572	343.422400	378.490033	-416.398619	356.835186	391.740483	-341.593700	276.423826	329.091667	-378.480913	450.888459	312.615411	-436.258126	398.159335	642.211074	-428.473572	402.216849	555.627422	-419.857836	361.617445	476.923133	-418.871948	428.110717	552.770057	-389.837324	535.903868	347.757461	-365.086337	-64.771231	852.673042	-240.698937	21.184231	83.827143	-442.124762	21.175876	83.927417	-43.974967	
1251	6.2550	510.739686	1207.546965	-70.580914	509.259725	1216.735530	-421.681762	497.736711	1296.251997	-237.252223	466.209039	1165.689224	-246.624025	488.782623	1014.890727	87.470937	676.733564	901.855874	-5.329069	456.588054	1005.406288	-593.948890	656.572485	903.396900	-491.785948	6.846808	1123.047533	-224.927438	123.637729	1141.968801	-385.529593	154.757776	1119.205223	-83.807741	170.689197	1085.840778	-366.159842	198.270498	1072.032287	-114.248089	37.681841	1153.613662	-163.910396	30.939267	1165.246650	-271.012124	152.345754	978.386639	-53.165620	104.866509	1000.443802	-423.503499	261.910345	894.920930	-78.020018	338.802816	857.077986	-97.660642	381.984740	781.067907	-110.830172	356.278480	878.206300	-122.559625	420.361100	690.893104	-146.635353	385.173586	675.570363	-238.672881	342.458863	629.899684	-104.819182	294.336298	555.128954	-112.539328	217.222268	514.196845	-101.398766	307.944805	539.741244	-146.957317	141.779164	451.823952	-89.932869	141.278003	455.445486	-165.897908	64.599878	486.714266	-120.626297	209.960510	266.310078	-129.467945	151.830731	323.767907	-62.765290	220.100824	912.120312	-430.305896	299.631066	881.348259	-424.327791	321.687355	909.785483	-411.845965	355.768910	811.383857	-422.780669	418.939079	732.102287	-406.047252	439.212962	720.375538	-309.384586	342.672089	368.455666	-416.371592	354.724186	379.841556	-339.995667	276.064053	319.289017	-378.542232	450.438682	301.570672	-436.170665	394.084925	633.311384	-428.692187	399.269631	546.949640	-420.548769	359.591021	467.596849	-419.215755	425.132554	543.966109	-389.717660	535.925282	336.306093	-365.164957	-64.778951	852.708330	-240.839660	21.188193	83.808776	-442.140741	21.187976	83.933422	-43.978506	
1252	6.2600	509.874461	1207.512068	-69.527722	510.794451	1217.226933	-420.369863	497.990401	1296.076310	-236.161058	466.498425	1165.748979	-245.664115	488.289472	1014.108468	87.600878	676.844684	901.737733	-5.027347	457.588124	1006.639030	-593.738043	656.570764	903.278204	-490.992851	7.053829	1122.242803	-227.505134	123.836025	1140.095583	-387.354915	154.267119	1119.769425	-85.612987	171.325721	1085.020186	-367.571519	198.029664	1072.538241	-115.598006	37.292805	1153.209696	-166.426521	31.107902	1164.233436	-273.467827	153.042947	979.146758	-54.566921	104.321360	996.660626	-425.234070	263.351691	897.608653	-79.396092	341.025897	861.210023	-98.814681	385.927874	785.920915	-112.147320	358.273502	882.772227	-123.601421	425.412686	696.602454	-148.060159	390.161269	681.973549	-240.044572	346.698395	636.833621	-106.457707	297.409490	563.074412	-113.603774	219.622335	523.463716	-102.171640	310.722997	547.353298	-147.948754	143.172351	462.692070	-90.346871	142.689826	466.404510	-166.372994	66.906356	498.040854	-121.677770	211.440709	277.390954	-129.581974	153.262852	334.943388	-62.923001	217.844207	907.289393	-431.985235	296.556043	874.813126	-425.305224	319.464027	902.565297	-413.111007	350.957974	803.280168	-423.154074	413.324490	722.986722	-405.856177	431.686937	710.957695	-310.225212	341.301048	358.543858	-416.257396	353.622953	369.764757	-340.134248	275.109157	309.788692	-378.464579	449.283046	290.634951	-436.064886	389.618440	624.303005	-428.729269	395.865516	537.948546	-420.663135	357.082785	458.103743	-419.362715	421.634209	535.210945	-389.561252	535.056385	324.247802	-364.802936	-64.790147	852.736335	-240.989619	21.184987	83.813617	-442.160347	21.182905	83.942689	-44.001355	
1253	6.2650	508.741798	1207.529416	-68.881633	512.432587	1217.672823	-418.990099	497.933514	1296.185475	-234.400603	466.769854	1165.866302	-244.553282	487.807874	1013.416565	87.741942	677.026618	901.695679	-4.736989	458.534193	1007.865205	-593.428853	656.700406	903.168093	-490.326034	7.355138	1121.335971	-230.165521	124.260616	1138.349148	-389.144978	153.635068	1120.329217	-87.425505	172.088109	1084.096182	-368.992425	197.870641	1072.997313	-116.718921	36.928737	1152.844180	-169.118160	31.233204	1163.045341	-276.134209	153.638981	979.972166	-55.918795	103.913128	993.274689	-427.041589	264.633764	900.547173	-80.799273	343.094886	865.713232	-99.989390	389.518589	791.663774	-112.990013	359.823251	888.094381	-124.177693	430.536302	702.506238	-149.437686	393.823841	687.796639	-241.657583	351.520187	644.533364	-107.109109	300.760195	571.122241	-114.544199	222.349226	532.967526	-102.914701	313.797741	555.146166	-148.868788	144.887655	473.572175	-90.793383	144.481454	477.204780	-166.776560	68.521794	508.876082	-121.812078	213.743926	288.810392	-129.841445	155.340737	346.076027	-63.092760	215.571873	902.471275	-433.148655	293.365414	868.129129	-426.136628	317.051065	894.947278	-414.320826	345.844583	794.858468	-423.419537	407.426832	714.099596	-405.788206	424.905985	702.763884	-310.498561	339.064598	349.498999	-416.765018	352.100204	359.867672	-340.071488	273.433979	300.662221	-378.380074	447.483299	279.784320	-435.897551	384.684871	614.999605	-428.668739	391.881046	528.856202	-420.691244	354.032157	448.470983	-419.366360	417.519934	526.386620	-389.437081	533.564855	312.593853	-364.651857	-64.793213	852.837249	-241.298597	21.180133	83.778442	-442.165619	21.176930	83.929754	-44.020873	
1254	6.2700	507.586912	1207.682831	-67.615598	514.160376	1218.175847	-417.492374	498.044300	1296.407360	-232.733707	466.832495	1166.035103	-243.343192	487.297849	1012.688615	87.953592	677.224867	901.745882	-4.576682	459.142858	1009.189716	-593.202148	656.975341	903.067101	-489.909230	7.528808	1120.657166	-232.884036	124.604707	1136.969602	-390.612046	152.955656	1120.952835	-89.129795	172.842091	1083.025105	-370.344702	197.645103	1073.441321	-117.921611	37.032451	1152.444378	-171.395503	31.581023	1162.737363	-278.340768	153.994503	981.188150	-57.351948	103.454117	990.510526	-428.699804	265.900783	903.595935	-82.109835	345.166301	870.413831	-100.843755	393.154630	797.252210	-113.921895	361.479111	893.109154	-124.699827	435.752240	709.020841	-150.766957	398.878848	694.070173	-242.192881	356.323287	651.831407	-108.441911	304.422738	579.622801	-115.382412	225.411621	542.585475	-103.569264	317.156428	563.264992	-149.628704	147.082265	484.323187	-91.125307	146.767834	488.064340	-167.197075	70.277598	519.571036	-121.779472	216.782594	300.099366	-129.912672	158.057547	357.100248	-63.257153	213.179210	897.667782	-434.062420	289.872924	860.943607	-427.374383	314.469543	887.540636	-415.437369	340.415597	786.527533	-423.449512	400.967320	704.927569	-405.918951	418.932168	694.033717	-311.168554	336.766120	339.107210	-415.357489	349.500409	349.895846	-340.155715	271.236250	291.733211	-378.130357	445.002973	269.184741	-435.722943	379.055762	605.565856	-428.538962	387.390485	519.522288	-420.337653	350.467416	438.724749	-419.273404	412.741466	517.288070	-389.136210	531.493835	301.028696	-364.536481	-64.794034	852.756671	-241.391019	21.197752	83.751813	-442.163164	21.182224	83.946853	-44.031321	
